<svg width="48" height="50" viewBox="0 0 48 50" fill="none" xmlns="http://www.w3.org/2000/svg">
<rect width="48" height="50" fill="#272B23"/>
<path d="M24.0019 2C11.3169 2 1 12.3149 1 25C1 37.6851 11.3169 48 24.0019 48C36.687 48 47.0019 37.6851 47.0019 25C47.0019 12.3149 36.687 2 24.0019 2ZM24.0019 4C35.6049 4 45.0019 13.3971 45.0019 25C45.0019 36.6029 35.6049 46 24.0019 46C12.399 46 3 36.6029 3 25C3 13.3971 12.399 4 24.0019 4ZM25.9981 6C25.2509 6 24.5913 6.34821 24.1738 6.74609C23.7564 7.14397 23.502 7.55525 23.2441 7.89062C23.2133 7.93067 23.1859 7.96164 23.1562 8H15L16.7891 11.0449C16.1605 11.5599 15.6692 11.8822 15.1602 11.9434C15.1579 11.938 15.1585 11.9413 15.1562 11.9356C15.0671 11.7137 14.998 11.2959 14.998 11C14.997 10.6469 14.8097 10.3205 14.5055 10.1413C14.2012 9.9621 13.825 9.95665 13.5156 10.127C11.831 11.0595 9.99804 12.6944 9.99804 15C9.99804 16.0806 10.5432 17.0196 11.2617 17.7383C11.6448 18.1215 12.0939 18.4462 12.5898 18.6738C11.579 20.9141 10.8375 22.9453 10.4141 25H3.99804L13.998 42L14.9805 40.3301C16.837 41.9367 19.1994 43 21.998 43C25.7209 43 29.1327 40.8207 31.5781 37.8848L33.998 42L43.998 25H38.9355C39.5276 23.4405 39.998 21.7435 39.998 20C39.998 18.7579 39.497 17.3985 38.7129 15.9219C37.9288 14.4452 36.8358 12.8815 35.541 11.4317C34.8435 10.6506 34.0844 9.90222 33.2832 9.21681L33.998 8.00001H31.6797C29.9106 6.80201 27.9851 6 25.9981 6ZM25.9981 8C28.5562 8 31.6694 10.0993 34.0488 12.7637C35.2385 14.0958 36.2488 15.5475 36.9453 16.8594C37.6419 18.1712 37.998 19.3701 37.998 20C37.998 21.4983 37.4927 23.089 36.8887 24.6191C36.1515 23.1806 35.2142 21.828 33.6426 20.8262C34.3834 20.0715 34.9981 19.1734 34.9981 18C34.9981 17.1562 34.585 16.4815 34.0606 15.9531C33.5361 15.4247 32.8521 15 31.9981 15C31.1704 15 30.5766 15.3601 30.084 15.6074C29.6036 15.8486 29.2326 15.9872 29.0195 15.9942C29.0047 15.9831 28.9117 15.9447 28.7539 15.7988C28.5309 15.5926 28.2395 15.2404 27.9141 14.8555C27.5887 14.4705 27.2265 14.0482 26.7696 13.6856C26.3126 13.3229 25.7146 13 24.9981 13C24.4155 13 23.972 13.2728 23.6485 13.5313C23.3249 13.7897 23.0768 14.0686 22.8457 14.3125C22.3836 14.8003 22.0435 15 21.9981 15C21.8264 15 21.6271 14.8357 21.2031 14.3457C20.9912 14.1007 20.7524 13.8091 20.4121 13.5352C20.0719 13.2612 19.5758 13 18.9981 13C18.1546 13 17.6826 13.5191 17.2891 13.9629C16.8955 14.4067 16.5438 14.912 16.1739 15.3867C15.4595 16.3035 14.7657 16.9485 14.0723 16.9922C14.0587 16.9906 14.045 16.9893 14.0313 16.9883C13.9994 16.9874 13.9674 16.988 13.9356 16.9902C13.5991 16.9649 13.0807 16.7292 12.6758 16.3242C12.2476 15.8959 11.9981 15.3314 11.9981 15C11.9981 14.2199 12.609 13.4582 13.3653 12.7812C13.4763 13.0346 13.605 13.2903 13.8438 13.5215C14.1147 13.7838 14.5448 14 14.9981 14C16.563 14 17.5974 12.9939 18.4551 12.2598C19.3128 11.5256 19.9836 11 20.9981 11C22.9959 11 24.1905 9.94058 24.8282 9.11132C25.147 8.69669 25.3801 8.35797 25.5528 8.19335C25.7255 8.02873 25.7567 8 25.9981 8ZM25.0273 15.0078C25.1413 15.0152 25.2929 15.0679 25.5273 15.2539C25.7791 15.4538 26.0781 15.7814 26.3867 16.1465C26.6953 16.5115 27.0113 16.9094 27.3965 17.2656C27.7817 17.6219 28.2864 18 28.9981 18C29.8411 18 30.4771 17.6472 30.9805 17.3945C31.4839 17.1418 31.8627 17 31.9981 17C32.084 17 32.402 17.119 32.6426 17.3613C32.8831 17.6037 32.9981 17.9268 32.9981 18C32.9981 18.6576 32.2744 19.6457 31.4668 20.1543C31.1505 20.3527 30.971 20.7108 31.0014 21.083C31.0318 21.4552 31.267 21.7794 31.6113 21.9238C34.0614 22.9521 35.0206 24.7655 35.8984 26.9668L35.1055 28.5547C34.9308 28.9036 34.9751 29.3222 35.2188 29.627C35.7512 30.2895 35.9981 30.6718 35.9981 31C35.9981 31.4758 35.7314 31.9328 35.1738 32.332C34.6162 32.7313 33.7973 33 32.9981 33C32.6184 33.0007 32.2719 33.2163 32.1035 33.5566C30.1396 37.5079 25.9759 41 21.9981 41C18.787 41 16.3599 39.3838 14.6406 37.0371C12.9214 34.6905 11.998 31.609 11.998 29C11.998 25.5918 12.9246 22.7189 14.6816 18.9297C16.0839 18.6449 17.0431 17.5249 17.7519 16.6153C18.1613 16.0899 18.5137 15.5953 18.7852 15.2891C18.9165 15.1409 19.0145 15.0725 19.0625 15.0371C19.083 15.0443 19.0832 15.0315 19.1582 15.0918C19.2837 15.1929 19.4707 15.3993 19.6914 15.6543C20.1327 16.1643 20.8306 17 21.998 17C23.1536 17 23.8115 16.2017 24.2969 15.6895C24.5395 15.4334 24.7525 15.2123 24.8984 15.0957C24.9682 15.04 25.0093 15.018 25.0273 15.0078ZM17.9981 18C16.6771 18.758 15.646 19.336 14.998 20H17.9981V18ZM25.9981 18L24.5879 19.4121L27.9981 21C27.6281 20.03 26.8081 18.77 25.9981 18ZM20.9668 21.9883C20.5662 22.0034 20.2133 22.2563 20.0703 22.6309C19.3813 24.3654 18.4625 25.9435 17.2442 27.3457C16.8994 27.7419 16.9198 28.3374 17.291 28.709L18.291 29.709C18.6821 30.1 19.316 30.1 19.7071 29.709C20.0981 29.318 20.0981 28.684 19.7071 28.293L19.3067 27.8926C20.3894 26.4965 21.2822 24.996 21.9277 23.3711C22.0584 23.0564 22.0198 22.6968 21.8253 22.417C21.6309 22.1371 21.3073 21.9756 20.9668 21.9883ZM15.9981 22C15.4461 22 14.998 22.672 14.998 23.5C14.998 24.328 15.4461 25 15.9981 25C16.5501 25 16.9981 24.328 16.9981 23.5C16.9981 22.672 16.5501 22 15.9981 22ZM26.5332 22.9766C25.4122 22.9766 24.4772 23.2912 24.1172 23.6992C23.8812 24.0002 24.0321 24.2619 24.3691 24.2969C25.7781 24.4449 26.6987 25.2237 27.3437 25.8867C27.6057 26.1547 27.999 25.921 28 25.5C28 25.156 28.0002 24.5426 27.8242 24.0156C27.6322 23.4326 27.2282 22.9766 26.5332 22.9766ZM23.9863 29.2129L24.7051 31.0371C24.6434 31.0573 24.5839 31.0835 24.5273 31.1152C22.6728 32.0832 20.5714 33 18.6465 33C17.2765 33 16.1855 32.2197 15.0762 31.2481C14.9774 31.1591 14.8619 31.0907 14.7363 31.0469L14.9981 30L13.8008 31.1973C13.7327 31.2498 13.6716 31.3108 13.6192 31.3789L12.9981 32L13.9981 34L14.2168 33.127C15.3502 34.0654 16.771 35 18.6465 35C21.1711 35 23.5129 33.8985 25.4375 32.8946L26.0371 34.4121L26.9863 31.8379L23.9863 29.2129Z" fill="#14FE17"/>
</svg>
