<svg xmlns="http://www.w3.org/2000/svg" xmlns:xlink="http://www.w3.org/1999/xlink" viewBox="0,0,256,256" width="100px" height="100px" fill-rule="nonzero"><g fill="#14fe17" fill-rule="nonzero" stroke="none" stroke-width="1" stroke-linecap="butt" stroke-linejoin="miter" stroke-miterlimit="10" stroke-dasharray="" stroke-dashoffset="0" font-family="none" font-weight="none" font-size="none" text-anchor="none" style="mix-blend-mode: normal"><g transform="scale(5.12,5.12)"><path d="M25.00195,1.99805c-12.68506,0 -23.00195,10.31488 -23.00195,23c0,12.68512 10.31689,23 23.00195,23c12.68506,0 23,-10.31488 23,-23c0,-12.68512 -10.31494,-23 -23,-23zM25.00195,3.99805c11.60294,0 21,9.39712 21,21c0,11.60288 -9.39706,21 -21,21c-11.60294,0 -21.00195,-9.39712 -21.00195,-21c0,-11.60288 9.39902,-21 21.00195,-21zM26.99805,5.99805c-0.74716,0 -1.40675,0.34821 -1.82422,0.74609c-0.41747,0.39788 -0.67179,0.80916 -0.92969,1.14453c-0.0308,0.04005 -0.05822,0.07102 -0.08789,0.10938h-8.15625l1.78906,3.04492c-0.62856,0.51495 -1.11985,0.83732 -1.62891,0.89844c-0.0023,-0.0054 -0.00161,-0.00211 -0.00391,-0.00781c-0.08919,-0.22182 -0.1582,-0.6396 -0.1582,-0.93555c-0.00108,-0.35312 -0.1883,-0.6795 -0.49258,-0.8587c-0.30428,-0.1792 -0.6805,-0.18465 -0.98984,-0.01435c-1.68459,0.93252 -3.51758,2.5675 -3.51758,4.87305c0,1.08065 0.54517,2.01962 1.26367,2.73828c0.3831,0.38318 0.83215,0.70791 1.32813,0.93555c-1.01081,2.24026 -1.75234,4.27147 -2.17578,6.32617h-6.41602l10,17l0.98242,-1.66992c1.85653,1.60662 4.21893,2.66992 7.01758,2.66992c3.7229,0 7.13465,-2.17927 9.58008,-5.11523l2.41992,4.11523l10,-17h-5.0625c0.59202,-1.55949 1.0625,-3.25647 1.0625,-5c0,-1.24209 -0.50108,-2.60146 -1.28516,-4.07812c-0.78407,-1.47667 -1.87708,-3.0404 -3.17187,-4.49023c-0.69755,-0.78108 -1.45657,-1.52943 -2.25781,-2.21484l0.71484,-1.2168h-2.31836c-1.76912,-1.198 -3.69458,-2 -5.68164,-2zM26.99805,7.99805c2.55819,0 5.67137,2.09935 8.05078,4.76367c1.1897,1.33216 2.19993,2.78387 2.89648,4.0957c0.69655,1.31184 1.05273,2.51072 1.05273,3.14063c0,1.49832 -0.50537,3.08899 -1.10937,4.61914c-0.73714,-1.43858 -1.67449,-2.79119 -3.24609,-3.79297c0.74086,-0.75464 1.35547,-1.65276 1.35547,-2.82617c0,-0.84381 -0.41303,-1.51846 -0.9375,-2.04687c-0.52447,-0.52842 -1.20846,-0.95312 -2.0625,-0.95312c-0.82764,0 -1.42146,0.36013 -1.91406,0.60742c-0.48041,0.24117 -0.85137,0.37973 -1.06445,0.38672c-0.0148,-0.01101 -0.10786,-0.04942 -0.26562,-0.19531c-0.22305,-0.20627 -0.51443,-0.55841 -0.83984,-0.94336c-0.32541,-0.38495 -0.68759,-0.80727 -1.14453,-1.16992c-0.45694,-0.36265 -1.05493,-0.68555 -1.77148,-0.68555c-0.58261,0 -1.02606,0.27279 -1.34961,0.53125c-0.32355,0.25846 -0.57166,0.53737 -0.80273,0.78125c-0.46215,0.48776 -0.80225,0.6875 -0.84766,0.6875c-0.17162,0 -0.37097,-0.16432 -0.79492,-0.6543c-0.21198,-0.24499 -0.45078,-0.53663 -0.79102,-0.81055c-0.34023,-0.27392 -0.83628,-0.53516 -1.41406,-0.53516c-0.84343,0 -1.31542,0.51906 -1.70898,0.96289c-0.39357,0.44383 -0.74534,0.94914 -1.11523,1.42383c-0.71436,0.91673 -1.40814,1.56182 -2.10156,1.60547c-0.01364,-0.00158 -0.02732,-0.00289 -0.04102,-0.00391c-0.03191,-0.00088 -0.06385,-0.00023 -0.0957,0.00195c-0.3365,-0.02528 -0.85483,-0.26099 -1.25977,-0.66602c-0.42824,-0.42834 -0.67773,-0.99286 -0.67773,-1.32422c0,-0.78011 0.61093,-1.54183 1.36719,-2.21875c0.11102,0.25334 0.23974,0.50901 0.47852,0.74023c0.27091,0.26235 0.70105,0.47852 1.1543,0.47852c1.56493,0 2.59934,-1.00612 3.45703,-1.74024c0.85769,-0.73411 1.52845,-1.25976 2.54297,-1.25976c1.99784,0 3.19238,-1.05941 3.83008,-1.88867c0.31885,-0.41463 0.55189,-0.75335 0.72461,-0.91797c0.17272,-0.16462 0.20397,-0.19336 0.44531,-0.19336zM26.02734,15.00586c0.114,0.00736 0.26559,0.06005 0.5,0.24609c0.25181,0.19985 0.55078,0.52753 0.85938,0.89258c0.30859,0.36505 0.62456,0.76291 1.00977,1.11914c0.3852,0.35623 0.88993,0.73438 1.60156,0.73438c0.84306,0 1.47903,-0.35276 1.98242,-0.60547c0.5034,-0.25271 0.88222,-0.39453 1.01758,-0.39453c0.08596,0 0.404,0.11899 0.64453,0.36133c0.24053,0.24233 0.35547,0.56549 0.35547,0.63867c0,0.65756 -0.72366,1.6457 -1.53125,2.1543c-0.31635,0.1984 -0.49583,0.55651 -0.46543,0.92868c0.0304,0.37218 0.26561,0.69642 0.60996,0.84085c2.45008,1.02832 3.40924,2.84163 4.28711,5.04297l-0.79297,1.58789c-0.17464,0.34892 -0.13042,0.76754 0.11328,1.07227c0.53245,0.66259 0.7793,1.04482 0.7793,1.37305c0,0.47575 -0.2666,0.93277 -0.82422,1.33203c-0.55762,0.39926 -1.37656,0.66797 -2.17578,0.66797c-0.37966,0.00071 -0.72618,0.21634 -0.89453,0.55664c-1.96394,3.95122 -6.1276,7.44336 -10.10547,7.44336c-3.21104,0 -5.63817,-1.61625 -7.35742,-3.96289c-1.71925,-2.34664 -2.64258,-5.42815 -2.64258,-8.03711c0,-3.40816 0.92655,-6.28107 2.68359,-10.07031c1.40226,-0.28475 2.36145,-1.40478 3.07031,-2.31445c0.40935,-0.52532 0.76171,-1.02 1.0332,-1.32617c0.13137,-0.14815 0.22937,-0.21662 0.27734,-0.25195c0.02046,0.00713 0.02074,-0.00568 0.0957,0.05469c0.12555,0.10108 0.31256,0.30749 0.5332,0.5625c0.44129,0.51002 1.13926,1.3457 2.30664,1.3457c1.15559,0 1.81348,-0.79831 2.29883,-1.31055c0.24267,-0.25612 0.45567,-0.47721 0.60156,-0.59375c0.0698,-0.05575 0.11087,-0.0777 0.12891,-0.08789zM18.99805,17.99805c-1.321,0.758 -2.352,1.336 -3,2h3zM26.99805,17.99805l-1.41016,1.41211l3.41016,1.58789c-0.37,-0.97 -1.19,-2.23 -2,-3zM21.9668,21.98633c-0.40061,0.01515 -0.75346,0.26806 -0.89648,0.64258c-0.68905,1.73451 -1.60779,3.31263 -2.82617,4.71484c-0.34479,0.39623 -0.32432,0.99167 0.04688,1.36328l1,1c0.39102,0.39102 1.02499,0.39102 1.41602,0c0.39102,-0.39102 0.39102,-1.02499 0,-1.41602l-0.40039,-0.40039c1.08278,-1.39603 1.97558,-2.89658 2.62109,-4.52148c0.13063,-0.31472 0.09204,-0.6743 -0.10242,-0.95412c-0.19445,-0.27982 -0.518,-0.44138 -0.85852,-0.42869zM16.99805,21.99805c-0.552,0 -1,0.672 -1,1.5c0,0.828 0.448,1.5 1,1.5c0.552,0 1,-0.672 1,-1.5c0,-0.828 -0.448,-1.5 -1,-1.5zM27.5332,22.97461c-1.121,0 -2.05602,0.31466 -2.41602,0.72266c-0.236,0.301 -0.08505,0.56266 0.25195,0.59766c1.409,0.148 2.32961,0.92684 2.97461,1.58984c0.262,0.268 0.65525,0.03428 0.65625,-0.38672c0,-0.344 0.00022,-0.95737 -0.17578,-1.48437c-0.192,-0.583 -0.59602,-1.03906 -1.29102,-1.03906zM24.98633,29.21094l0.71875,1.82422c-0.06164,0.02022 -0.12116,0.04638 -0.17773,0.07813c-1.85457,0.96798 -3.95597,1.88477 -5.88086,1.88477c-1.37004,0 -2.46094,-0.78029 -3.57031,-1.75195c-0.09878,-0.08898 -0.21432,-0.15737 -0.33984,-0.20117l0.26172,-1.04687l-1.19727,1.19727c-0.0681,0.05249 -0.12915,0.11354 -0.18164,0.18164l-0.62109,0.62109l1,2l0.21875,-0.87305c1.13341,0.93839 2.55419,1.87305 4.42969,1.87305c2.5246,0 4.86638,-1.10153 6.79102,-2.10547l0.59961,1.51758l0.94922,-2.57422z"></path></g></g></svg>